<svg width="1170" height="219" viewBox="0 0 1170 219" fill="none" xmlns="http://www.w3.org/2000/svg">
<g clip-path="url(#clip0_401:11)">
<mask id="mask0_401:11" style="mask-type:alpha" maskUnits="userSpaceOnUse" x="0" y="0" width="1170" height="219">
<rect width="1170" height="219" rx="16" fill="white"/>
</mask>
<g mask="url(#mask0_401:11)">
<path opacity="0.05" fill-rule="evenodd" clip-rule="evenodd" d="M-226.932 294.862L186.076 184.196C191.604 182.715 197.502 184.299 201.544 188.351L250.851 237.773C254.878 241.811 256.453 247.686 254.983 253.197L236.994 320.651C235.519 326.181 231.203 330.502 225.675 331.983L-188.116 442.858L-226.932 294.862Z" fill="white" fill-opacity="0.7"/>
<path opacity="0.05" fill-rule="evenodd" clip-rule="evenodd" d="M-342.218 190.459L70.7909 79.794C76.3189 78.3128 82.2171 79.8969 86.259 83.9484L135.566 133.371C139.593 137.408 141.168 143.284 139.698 148.794L121.709 216.249C120.234 221.778 115.918 226.099 110.39 227.581L-303.401 338.456L-342.218 190.459Z" fill="white" fill-opacity="0.7"/>
<path opacity="0.05" fill-rule="evenodd" clip-rule="evenodd" d="M996.321 8.3578C1000.11 4.56843 1005.63 3.08851 1010.81 4.47552L1066.52 19.4041C1071.7 20.7911 1075.74 24.8343 1077.13 30.0107L1092.06 85.7248C1093.45 90.9012 1091.97 96.4243 1088.18 100.214L1047.39 140.999C1043.6 144.789 1038.08 146.269 1032.9 144.882L977.188 129.953C972.012 128.566 967.968 124.523 966.581 119.346L951.653 63.6323C950.266 58.4559 951.746 52.9327 955.535 49.1434L996.321 8.3578Z" fill="white" fill-opacity="0.7"/>
<path opacity="0.05" fill-rule="evenodd" clip-rule="evenodd" d="M1110.95 117.406C1114.74 113.616 1120.26 112.136 1125.44 113.523L1181.15 128.452C1186.33 129.839 1190.37 133.882 1191.76 139.059L1206.69 194.773C1208.07 199.949 1206.59 205.472 1202.81 209.262L1162.02 250.047C1158.23 253.836 1152.71 255.316 1147.53 253.929L1091.82 239.001C1086.64 237.614 1082.6 233.571 1081.21 228.394L1066.28 172.68C1064.89 167.504 1066.37 161.981 1070.16 158.191L1110.95 117.406Z" fill="white" fill-opacity="0.7"/>
<path opacity="0.05" fill-rule="evenodd" clip-rule="evenodd" d="M1141.21 -30.4654C1145 -34.2548 1150.52 -35.7347 1155.7 -34.3477L1211.41 -19.4192C1216.59 -18.0322 1220.63 -13.989 1222.02 -8.81257L1236.95 46.9015C1238.33 52.0779 1236.85 57.6011 1233.07 61.3904L1192.28 102.176C1188.49 105.965 1182.97 107.445 1177.79 106.058L1122.08 91.1297C1116.9 89.7427 1112.86 85.6995 1111.47 80.5231L1096.54 24.809C1095.15 19.6326 1096.63 14.1095 1100.42 10.3201L1141.21 -30.4654Z" fill="white" fill-opacity="0.7"/>
</g>
</g>
<defs>
<clipPath id="clip0_401:11">
<rect width="1170" height="219" fill="white"/>
</clipPath>
</defs>
</svg>
