<svg width="240" height="219" viewBox="0 0 240 219" fill="none" xmlns="http://www.w3.org/2000/svg">
<path opacity="0.05" fill-rule="evenodd" clip-rule="evenodd" d="M66.3207 8.35805C70.1101 4.56867 75.6332 3.08875 80.8096 4.47576L136.524 19.4043C141.7 20.7913 145.743 24.8345 147.13 30.0109L162.059 85.725C163.446 90.9014 161.966 96.4245 158.177 100.214L117.391 140.999C113.602 144.789 108.079 146.269 102.902 144.882L47.188 129.953C42.0116 128.566 37.9684 124.523 36.5814 119.347L21.6529 63.6325C20.2659 58.4561 21.7458 52.933 25.5352 49.1436L66.3207 8.35805Z" fill="white" fill-opacity="0.7"/>
<path opacity="0.05" fill-rule="evenodd" clip-rule="evenodd" d="M180.95 117.405C184.739 113.616 190.263 112.136 195.439 113.523L251.153 128.452C256.329 129.839 260.373 133.882 261.76 139.058L276.688 194.772C278.075 199.949 276.595 205.472 272.806 209.261L232.02 250.047C228.231 253.836 222.708 255.316 217.532 253.929L161.817 239.001C156.641 237.614 152.598 233.57 151.211 228.394L136.282 172.68C134.895 167.503 136.375 161.98 140.165 158.191L180.95 117.405Z" fill="white" fill-opacity="0.7"/>
<path opacity="0.05" fill-rule="evenodd" clip-rule="evenodd" d="M211.21 -30.4647C214.999 -34.2541 220.522 -35.734 225.699 -34.347L281.413 -19.4184C286.589 -18.0314 290.632 -13.9882 292.019 -8.81184L306.948 46.9023C308.335 52.0787 306.855 57.6018 303.065 61.3912L262.28 102.177C258.491 105.966 252.967 107.446 247.791 106.059L192.077 91.1304C186.901 89.7434 182.857 85.7002 181.47 80.5238L166.542 24.8097C165.155 19.6334 166.635 14.1102 170.424 10.3209L211.21 -30.4647Z" fill="white" fill-opacity="0.7"/>
</svg>
