<svg width="278" height="153" viewBox="0 0 278 153" fill="none" xmlns="http://www.w3.org/2000/svg">
<path opacity="0.05" fill-rule="evenodd" clip-rule="evenodd" d="M-226.931 228.862L186.077 118.196C191.605 116.715 197.503 118.299 201.545 122.351L250.852 171.773C254.879 175.811 256.454 181.686 254.984 187.197L236.995 254.651C235.52 260.181 231.204 264.502 225.676 265.983L-188.115 376.858L-226.931 228.862Z" fill="white" fill-opacity="0.7"/>
<path opacity="0.05" fill-rule="evenodd" clip-rule="evenodd" d="M-342.218 124.46L70.7909 13.7945C76.3189 12.3133 82.2171 13.8974 86.2591 17.9489L135.566 67.3714C139.593 71.4087 141.168 77.2846 139.698 82.7948L121.709 150.249C120.234 155.779 115.918 160.1 110.39 161.581L-303.401 272.456L-342.218 124.46Z" fill="white" fill-opacity="0.7"/>
</svg>
