<svg width="64" height="70" viewBox="0 0 64 70" fill="none" xmlns="http://www.w3.org/2000/svg">
<path opacity="0.35" fill-rule="evenodd" clip-rule="evenodd" d="M59.5585 19.0278C64.7871 28.9884 65.637 41.4094 60.8333 50.6756C56.0481 59.9417 45.5908 66.0133 35.4291 65.8347C25.2674 65.6562 15.4013 59.2076 8.38053 48.5723C1.37821 37.9371 -2.77884 23.1351 2.15419 13.3531C7.08723 3.59089 21.1103 -1.15131 32.9164 0.237623C44.7409 1.60671 54.3298 9.06724 59.5585 19.0278Z" fill="#0746A6" fill-opacity="0.2"/>
<path d="M34.3816 62.3628H15.1071C12.8057 62.3628 10.9397 60.4968 10.9397 58.1953V38.9209C10.9397 36.6195 12.8057 34.7535 15.1071 34.7535H34.3816C36.683 34.7535 38.549 36.6195 38.549 38.9209V58.1953C38.549 60.4968 36.683 62.3628 34.3816 62.3628Z" fill="#C0D0E8"/>
<path d="M26.5676 54.5488H7.29317C4.9917 54.5488 3.12573 52.6828 3.12573 50.3814V31.107C3.12573 28.8055 4.9917 26.9395 7.29317 26.9395H26.5676C28.8691 26.9395 30.735 28.8055 30.735 31.107V50.3814C30.735 52.6828 28.8691 54.5488 26.5676 54.5488Z" fill="#AFD1E8"/>
<path d="M22.756 36.5855C22.6753 36.5041 22.5793 36.4395 22.4735 36.3954C22.3677 36.3514 22.2542 36.3287 22.1396 36.3287C22.025 36.3287 21.9115 36.3514 21.8057 36.3954C21.6999 36.4395 21.6039 36.5041 21.5232 36.5855L15.0549 43.0624L12.3374 40.3362C12.2536 40.2552 12.1547 40.1916 12.0463 40.1489C11.9379 40.1061 11.8221 40.0852 11.7056 40.0872C11.5891 40.0892 11.4742 40.1142 11.3673 40.1606C11.2605 40.2071 11.1638 40.2741 11.0829 40.3579C11.0019 40.4417 10.9382 40.5406 10.8955 40.649C10.8528 40.7574 10.8319 40.8732 10.8339 40.9897C10.8359 41.1062 10.8608 41.2211 10.9073 41.328C10.9537 41.4349 11.0208 41.5315 11.1046 41.6125L14.4385 44.9464C14.5192 45.0278 14.6152 45.0924 14.721 45.1365C14.8268 45.1805 14.9403 45.2032 15.0549 45.2032C15.1696 45.2032 15.283 45.1805 15.3888 45.1365C15.4946 45.0924 15.5907 45.0278 15.6714 44.9464L22.756 37.8618C22.8442 37.7805 22.9145 37.6818 22.9626 37.572C23.0107 37.4621 23.0355 37.3435 23.0355 37.2236C23.0355 37.1037 23.0107 36.9851 22.9626 36.8753C22.9145 36.7655 22.8442 36.6668 22.756 36.5855Z" fill="#0C204C"/>
<path d="M34.3815 62.8838H15.1071C12.5222 62.8838 10.4187 60.7808 10.4187 58.1954V57.1535C10.4187 56.8655 10.6521 56.6326 10.9396 56.6326C11.2272 56.6326 11.4606 56.8655 11.4606 57.1535V58.1954C11.4606 60.2057 13.0963 61.8419 15.1071 61.8419H34.3815C36.3923 61.8419 38.028 60.2057 38.028 58.1954V38.921C38.028 36.9107 36.3923 35.2745 34.3815 35.2745H33.3396C33.0521 35.2745 32.8187 35.0416 32.8187 34.7535C32.8187 34.4655 33.0521 34.2326 33.3396 34.2326H34.3815C36.9664 34.2326 39.0699 36.3356 39.0699 38.921V58.1954C39.0699 60.7808 36.9664 62.8838 34.3815 62.8838Z" fill="#0C204C"/>
<path d="M26.3071 52.4652H7.55366C6.26123 52.4652 5.20947 51.4134 5.20947 50.121V31.3675C5.20947 30.0751 6.26123 29.0233 7.55366 29.0233H22.6606C22.8044 29.0233 22.9211 29.14 22.9211 29.2838C22.9211 29.4276 22.8044 29.5442 22.6606 29.5442H7.55366C6.54826 29.5442 5.7304 30.3621 5.7304 31.3675V50.121C5.7304 51.1264 6.54826 51.9442 7.55366 51.9442H26.3071C27.3125 51.9442 28.1304 51.1264 28.1304 50.121V41.0047C28.1304 40.8609 28.2471 40.7442 28.3909 40.7442C28.5346 40.7442 28.6513 40.8609 28.6513 41.0047V50.121C28.6513 51.4134 27.5996 52.4652 26.3071 52.4652ZM28.3909 39.4419C28.2471 39.4419 28.1304 39.3252 28.1304 39.1815V37.0977C28.1304 36.954 28.2471 36.8373 28.3909 36.8373C28.5346 36.8373 28.6513 36.954 28.6513 37.0977V39.1815C28.6513 39.3252 28.5346 39.4419 28.3909 39.4419ZM28.3909 36.3163C28.2471 36.3163 28.1304 36.1997 28.1304 36.0559V35.014C28.1304 34.8702 28.2471 34.7535 28.3909 34.7535C28.5346 34.7535 28.6513 34.8702 28.6513 35.014V36.0559C28.6513 36.1997 28.5346 36.3163 28.3909 36.3163Z" fill="#0C204C"/>
<path d="M26.5675 55.0698H7.29311C4.70825 55.0698 2.60474 52.9668 2.60474 50.3814V31.107C2.60474 28.5216 4.70825 26.4186 7.29311 26.4186H26.5675C29.1524 26.4186 31.2559 28.5216 31.2559 31.107V50.3814C31.2559 52.9668 29.1524 55.0698 26.5675 55.0698ZM7.29311 27.4605C5.28232 27.4605 3.6466 29.0967 3.6466 31.107V50.3814C3.6466 52.3917 5.28232 54.0279 7.29311 54.0279H26.5675C28.5783 54.0279 30.214 52.3917 30.214 50.3814V31.107C30.214 29.0967 28.5783 27.4605 26.5675 27.4605H7.29311Z" fill="#0C204C"/>
</svg>
