<svg width="122" height="23" viewBox="0 0 122 23" fill="none" xmlns="http://www.w3.org/2000/svg">
<path d="M0.56 1.2V18H7.232C9.536 18 11.456 17.184 12.992 15.576C14.552 13.968 15.32 11.976 15.32 9.6C15.32 7.224 14.552 5.232 12.992 3.624C11.456 2.016 9.536 1.2 7.232 1.2H0.56ZM3.872 14.832V4.368H7.232C8.696 4.368 9.872 4.848 10.784 5.832C11.696 6.792 12.152 8.04 12.152 9.6C12.152 11.16 11.696 12.408 10.784 13.392C9.872 14.352 8.696 14.832 7.232 14.832H3.872ZM29.1894 13.272C29.2614 12.816 29.3094 12.408 29.3094 12C29.3094 10.2 28.7334 8.712 27.5814 7.488C26.4534 6.264 24.9894 5.664 23.2374 5.664C21.3894 5.664 19.8534 6.264 18.6774 7.488C17.5014 8.688 16.9014 10.2 16.9014 12C16.9014 13.824 17.5014 15.336 18.7014 16.536C19.9014 17.736 21.4854 18.336 23.4774 18.336C25.7814 18.336 27.5334 17.472 28.7094 15.768L26.2134 14.328C25.6134 15.12 24.7014 15.528 23.5254 15.528C21.6774 15.528 20.5494 14.784 20.1414 13.272H29.1894ZM20.0934 10.872C20.4534 9.336 21.5814 8.448 23.2374 8.448C24.6534 8.448 25.8534 9.24 26.2134 10.872H20.0934ZM34.5667 18V0.48H31.4707V18H34.5667ZM38.9364 4.56C39.9924 4.56 40.8564 3.696 40.8564 2.664C40.8564 1.632 39.9924 0.743999 38.9364 0.743999C37.9044 0.743999 37.0404 1.632 37.0404 2.664C37.0404 3.696 37.9044 4.56 38.9364 4.56ZM40.4964 18V6H37.4004V18H40.4964ZM48.2981 14.4L45.3941 6H41.9861L46.5461 18H50.0741L54.6341 6H51.2261L48.2981 14.4ZM67.3222 13.272C67.3942 12.816 67.4422 12.408 67.4422 12C67.4422 10.2 66.8662 8.712 65.7142 7.488C64.5862 6.264 63.1222 5.664 61.3702 5.664C59.5222 5.664 57.9862 6.264 56.8102 7.488C55.6342 8.688 55.0342 10.2 55.0342 12C55.0342 13.824 55.6342 15.336 56.8342 16.536C58.0342 17.736 59.6182 18.336 61.6102 18.336C63.9142 18.336 65.6662 17.472 66.8422 15.768L64.3462 14.328C63.7462 15.12 62.8342 15.528 61.6582 15.528C59.8102 15.528 58.6822 14.784 58.2742 13.272H67.3222ZM58.2262 10.872C58.5862 9.336 59.7142 8.448 61.3702 8.448C62.7862 8.448 63.9862 9.24 64.3462 10.872H58.2262ZM72.6995 6H69.6035V18H72.6995V12.264C72.6995 11.112 73.0595 10.296 73.8035 9.792C74.5475 9.288 75.4115 9.096 76.3475 9.216V5.76C74.7155 5.76 73.2755 6.528 72.6995 8.064V6ZM83.576 14.064L80.456 6H77.072L81.992 17.616C81.416 19.248 80.504 19.944 78.848 19.92V22.8C81.92 22.968 83.936 21.456 85.184 18L89.552 6H86.24L83.576 14.064ZM105.305 15.816C107.009 14.112 107.849 12.048 107.849 9.6C107.849 7.152 107.009 5.088 105.305 3.408C103.601 1.704 101.537 0.863999 99.1134 0.863999C96.6894 0.863999 94.6254 1.704 92.9214 3.408C91.2414 5.088 90.4014 7.152 90.4014 9.6C90.4014 12.048 91.2414 14.112 92.9214 15.816C94.6254 17.496 96.6894 18.336 99.1134 18.336C101.537 18.336 103.601 17.496 105.305 15.816ZM95.2494 13.56C94.2174 12.528 93.6894 11.208 93.6894 9.6C93.6894 7.992 94.2174 6.672 95.2494 5.64C96.2814 4.608 97.5774 4.08 99.1134 4.08C100.649 4.08 101.945 4.608 102.977 5.64C104.009 6.672 104.537 7.992 104.537 9.6C104.537 11.208 104.009 12.528 102.977 13.56C101.945 14.592 100.649 15.096 99.1134 15.096C97.5774 15.096 96.2814 14.592 95.2494 13.56ZM115.304 18.336C117.104 18.336 118.568 17.88 119.696 16.968C120.824 16.056 121.4 14.832 121.4 13.272C121.4 12.312 121.136 11.472 120.776 10.896C120.464 10.32 119.696 9.72 119.192 9.408C118.952 9.24 118.592 9.072 118.136 8.904C117.68 8.712 117.32 8.568 117.056 8.496L115.904 8.112C114.656 7.728 113.816 7.368 113.36 7.056C112.928 6.72 112.712 6.288 112.712 5.76C112.712 4.776 113.552 4.08 114.92 4.08C116.384 4.08 117.464 4.8 118.136 6.24L120.92 4.632C119.768 2.256 117.632 0.863999 114.92 0.863999C113.408 0.863999 112.088 1.32 111.008 2.232C109.928 3.12 109.4 4.344 109.4 5.856C109.4 7.392 109.952 8.544 110.984 9.312C112.04 10.056 112.952 10.416 114.464 10.872C115.832 11.256 116.768 11.616 117.296 11.952C117.824 12.264 118.088 12.72 118.088 13.32C118.088 14.352 117.248 15.096 115.4 15.096C113.48 15.096 112.184 14.232 111.536 12.528L108.704 14.184C109.64 16.752 111.968 18.336 115.304 18.336Z" fill="#0747A6"/>
</svg>
